<svg xmlns="http://www.w3.org/2000/svg" width="50" height="50" viewBox="0 0 50 50"><defs><style>.a{fill:#fff;fill-rule:evenodd;}</style></defs><g transform="translate(-454.146)"><path class="a" d="M479.133,0a25,25,0,1,0,25.013,24.986A25.022,25.022,0,0,0,479.133,0Zm-2.117,12.518q1.067,0,2.117,0a155.552,155.552,0,0,1,17.059.7c1.582.16,2.41.535,2.6,2.247.293,3.1.321,6.287.321,9.524,0,3.264-.029,6.447-.321,9.551-.189,1.712-1.017,2.087-2.6,2.248a162.883,162.883,0,0,1-17.059.7,162.68,162.68,0,0,1-17.033-.7c-1.58-.16-2.41-.535-2.6-2.248-.295-3.1-.321-6.287-.321-9.551,0-3.237.027-6.421.321-9.524.188-1.712,1.018-2.086,2.6-2.247a145.638,145.638,0,0,1,14.917-.7Zm2.117,2.356A10.113,10.113,0,1,0,489.31,24.986,10.133,10.133,0,0,0,479.133,14.874Z" transform="translate(0 0)"/></g></svg>